<?xml version="1.0" standalone="no"?>
<!DOCTYPE svg PUBLIC "-//W3C//DTD SVG 20010904//EN"
 "http://www.w3.org/TR/2001/REC-SVG-20010904/DTD/svg10.dtd">
<svg version="1.0" xmlns="http://www.w3.org/2000/svg"
 width="700.000000pt" height="700.000000pt" viewBox="0 0 700.000000 700.000000"
 preserveAspectRatio="xMidYMid meet">
<metadata>
Created by potrace 1.14, written by Peter Selinger 2001-2017
</metadata>
<g transform="translate(0.000000,700.000000) scale(0.100000,-0.100000)"
fill="#000000" stroke="none">
<path d="M3377 6635 c-1 -1 -56 -5 -122 -9 -66 -3 -129 -8 -140 -10 -11 -2
-47 -7 -80 -11 -87 -9 -286 -53 -379 -82 -107 -33 -257 -93 -277 -109 -8 -8
-23 -14 -31 -14 -9 0 -21 -7 -28 -15 -7 -8 -17 -15 -22 -15 -14 0 -156 -97
-218 -149 -339 -286 -519 -706 -545 -1276 -2 -33 -3 -63 -4 -67 -1 -4 -22 -10
-48 -14 -27 -5 -50 -9 -53 -9 -3 -1 -32 -7 -65 -14 -350 -74 -696 -274 -919
-531 -39 -45 -137 -181 -144 -200 -3 -8 -16 -32 -28 -52 -54 -86 -144 -333
-160 -438 -3 -19 -9 -53 -14 -75 -23 -105 -32 -405 -17 -550 28 -267 118 -535
247 -735 60 -92 171 -221 249 -288 36 -31 68 -60 71 -63 26 -34 313 -200 398
-231 12 -4 33 -13 47 -20 14 -6 46 -11 72 -10 195 3 289 233 152 371 -23 22
-45 41 -51 41 -20 0 -208 97 -276 142 -95 64 -226 194 -285 285 -138 208 -198
446 -192 753 2 85 5 166 8 180 3 14 8 41 11 60 53 359 272 654 611 823 152 76
355 129 535 142 169 12 214 33 261 122 26 49 27 60 29 205 2 148 3 172 15 303
22 251 106 492 226 651 141 189 362 327 636 398 91 24 287 56 383 63 116 9
414 9 530 0 557 -43 939 -247 1115 -597 40 -79 88 -215 104 -290 6 -30 14 -66
16 -80 19 -89 33 -279 35 -473 2 -113 5 -133 27 -176 43 -88 101 -118 243
-126 153 -9 245 -27 389 -75 382 -127 641 -388 748 -755 21 -75 18 -61 27
-120 4 -27 10 -61 13 -75 3 -14 7 -97 8 -185 6 -333 -66 -584 -230 -800 -55
-73 -138 -155 -196 -196 -19 -13 -36 -26 -39 -30 -19 -21 -266 -149 -288 -149
-15 0 -80 -71 -98 -108 -10 -22 -17 -58 -17 -88 3 -156 150 -254 298 -201 309
112 604 353 773 629 101 165 186 396 207 559 4 30 9 57 11 60 16 27 24 374 11
504 -50 483 -253 857 -616 1127 -144 108 -354 211 -541 265 -93 27 -88 26
-210 51 l-84 17 -2 61 c-2 68 -12 206 -19 244 -2 14 -6 41 -9 60 -5 31 -17 97
-30 155 -45 215 -150 443 -282 615 -209 272 -531 463 -939 557 -41 9 -181 34
-217 38 -170 21 -245 26 -421 29 -92 1 -168 2 -170 1z"/>
<path d="M3296 3713 c-41 -11 -98 -56 -124 -97 -15 -24 -193 -376 -395 -782
-334 -670 -369 -744 -369 -789 -1 -85 45 -159 125 -202 30 -17 84 -18 742 -20
391 -1 718 -2 727 -2 14 -1 -47 -131 -278 -594 -325 -651 -319 -633 -276 -730
59 -133 220 -172 339 -81 27 20 102 164 418 795 366 733 385 773 385 825 0 63
-20 117 -58 157 -62 65 -15 62 -818 67 l-732 5 295 590 295 590 -4 67 c-3 55
-9 75 -34 110 -16 24 -49 53 -71 66 -41 22 -128 35 -167 25z"/>
</g>
</svg>
